<svg version="1.1" preserveAspectRatio="none" xmlns="http://www.w3.org/2000/svg" width="500" height="500" viewBox="0 0 500 500"><rect width="100%" height="100%" fill="#FBFBFB" fill-opacity="1"/><svg viewBox="409.4701 488.5737 386.4083 330" width="333" height="284.3883011829715" x="83.5px" y="107.8058px" xmlns="http://www.w3.org/2000/svg" xmlns:xlink="http://www.w3.org/1999/xlink" preserveAspectRatio="none"><defs></defs><style>.aIptOCySncolors-3 {fill:#EFEFEF;fill-opacity:1;}.aIptOCySncolors-4 {fill:#3E4AB8;fill-opacity:1;}.aIptOCySncolors-5 {fill:#A0A0A0;fill-opacity:1;}.aIptOCySncolors-6 {fill:#F5F7FF;fill-opacity:1;}.aIptOCySncolors-7 {fill:#3E4AB8;fill-opacity:1;}.companyName {fill:#0A0A0A;fill-opacity:1;}.icon1 {fill:#A0A0A0;fill-opacity:1;}.icon2 {fill:#FBFBFB;fill-opacity:1;}.icon3 {fill:#0A0A0A;fill-opacity:1;}.icon3-str {stroke:#0A0A0A;stroke-opacity:1;}</style><g opacity="1" transform="rotate(0 530.7992 488.5737)">
<svg width="143.7502" height="200" x="530.7992" y="488.5737" version="1.1" preserveAspectRatio="none" viewBox="42.74858093261719 20.003999710083008 114.99642944335938 159.99501037597656">
  <g transform="matrix(1 0 0 1 0 0)"><g><path d="M65.668 32.837c.516 0 .751.796.751 1.537 0 .741-.235 1.537-.751 1.537s-.752-.796-.752-1.537c0-.741.236-1.537.752-1.537zm33.761 63.214c.182.741-.2 1.536-1.075 2.241-.76.61-1.833 1.109-3.022 1.403a8.86 8.86 0 0 1-2.131.273c-1.722 0-2.942-.608-3.184-1.588-.182-.742.2-1.537 1.074-2.242.762-.61 1.835-1.11 3.023-1.403 1.194-.294 2.374-.355 3.323-.166 1.102.215 1.809.742 1.992 1.482zm-2.11 1.608c-1.034-1.273-3.108-1.601-3.545-1.657-.805.263-1.491.61-1.986 1.01-.496.399-.76.821-.691 1.102.031.129.147.255.331.367.602.367 1.961.55 3.639.132.854-.214 1.644-.548 2.252-.954zm1.028-1.34c-.02-.081-.083-.167-.188-.256a3.404 3.404 0 0 0-1.004-.037c.388.259.721.555.995.884.166-.227.236-.434.197-.591zm-34.989-48.97l-.073.2c-.077.27-.364.432-.664.371l-.149-.058a.569.569 0 0 1-.247-.641c.078-.269.116-.325.245-.561a.533.533 0 0 1-.231-.227.594.594 0 0 1 .016-.586c.1-.162.25-.251.469-.245.768.037 1.496-.005 2.177-.122a12.67 12.67 0 0 0 1.823-.5c.331-.923.565-1.868.703-2.826a.198.198 0 0 1-.028.019c-.516.357-1.197.481-1.863.34-.672-.144-1.252-.542-1.591-1.096a.52.52 0 0 1-.023-.532c.097-.18.292-.3.498-.307.205.026.373.093.48.269.178.287.489.497.855.572.374.078.759.009 1.047-.193l.005-.004a.51.51 0 0 1 .404-.073.596.596 0 0 1 .309.175c.033-.399.051-.798.051-1.199a.529.529 0 0 1 .537-.548c.275-.12.559-.24.843-.35.112-.037.206-.078.303-.119l.06-.025-2.513-5.902c-.077-.247-.127-.491-.047-.753-.089-1.757-.293-3.799-1.093-5.727-1.589-.068-2.895.032-4.064.323a9.035 9.035 0 0 0-1.989.728l-.102.052c-.518.258-1.23.612-1.482 1.1-.244.454.078 1.205.478 1.712.379.468.891.858 1.383 1.217.253.188.527.364.803.543.796.515 1.621 1.048 2.099 1.891a.688.688 0 0 1 .055.403c-.037.322-.223.672-.495.929a1.697 1.697 0 0 1-.577.348l-.019.019-.325.082c-.045.006-.081.016-.126.016a.414.414 0 0 1-.346-.123.484.484 0 0 1-.241-.159c-.423-.452-1.178-.576-1.776-.286-.517.255-.922.749-1.111 1.355-.192.613-.137 1.26.149 1.773.277.525.742.815 1.392.795.39-.005.769-.079 1.171-.157.407-.079.829-.16 1.265-.166.315 0 .55.24.55.559a.54.54 0 0 1-.545.559c-.259 0-.525.037-.764.078a5.162 5.162 0 0 1-3.014 2.285c-1.373.375-2.924.28-4.722-.293a5.482 5.482 0 0 1-.27 2.293c1.284.253 2.653.675 4.273 1.314a63.139 63.139 0 0 1 3.499 1.517c.252.115.511.244.755.373.851.474 1.508.996 2.012 1.598a6.827 6.827 0 0 1 1.428 5.676l.055.063.081.091a.547.547 0 0 1 .498.393 137.42 137.42 0 0 1 5.193 23.254l.002.003c.344.791.681 1.65.819 2.573 1.544.563 3.168 1.32 4.96 2.313l15.276-3.43v-2.188c0-1.052 2.816-1.134 3.679-1.134s3.679.082 3.679 1.134v2.313l15.308 4.94c.498-.479 1.438-.748 2.594-.729V67.08l-3.575-3.586-20.094-3.08.043-.269 4.029-24.779 8.48.337.418-2.238 1.989.062a4.174 4.174 0 0 1-.389-1.742 4.22 4.22 0 0 1 4.21-4.22 4.22 4.22 0 0 1 3.718 6.193l2.829.086-.23 2.356 11.489.455-3.899 28.769-6.242-.956.659.661c.266.324.385.644.371.971v19.392c1.756.771 2.814 1.872 2.74 2.833l30.593 9.873-.023 1.598-18.748 4.209V139.2l-.707.218v21.64l18.543-4.263 4.392 2.165-.74.171-49.396 11.356-4.392-2.165 25.22-5.799-.744-20.9-.946.293-1.269-35.658-20.615 4.631-.086-.044-18.026-9.161.678 17.054-.716.223v22.054l19.749-4.558 4.391 2.165-37.37 8.625a79.273 79.273 0 0 1-1.635 7.273l.098.014a.672.672 0 0 1 .179.078l.087.068a.464.464 0 0 1 .147.474c-.014.93-.005 1.862.004 2.792.017 1.872.036 3.81-.142 5.717l-.046.245a33.118 33.118 0 0 0-.213 6.316c.609.375 1.351.518 2.07.656l.377.073c1.093.218 2.161.595 3.193.961.196.07.341.125.486.18.114.043.23.088.344.129l.069-.022.077.059c.281.08.557.193.842.341 1.914.735 3.498 1.411 4.957 2.115a.4.4 0 0 1 .144.12c.089.08.143.171.164.279.175.816.008 1.908-1.781 2.454-1.728.525-3.559.909-5.14 1.227a60.838 60.838 0 0 1-13.264 1.181.476.476 0 0 1-.14.022.55.55 0 0 1-.2-.039c-.917-.328-1.547-1.326-1.763-2.166-.116-.485-.116-.991-.116-1.478 0-.178 0-.355-.006-.527a156.09 156.09 0 0 1-.081-2.282c-.019-.867-.037-1.733-.05-2.596h-.003c-1.329.16-3.879.285-6.05-.679-1.73-.776-1.501-2.434-1.297-3.896.025-.183.051-.364.071-.541.29-2.253.536-4.456.378-6.677-.129-1.725-.398-3.478-.656-5.172-.088-.578-.177-1.155-.26-1.733a.528.528 0 0 1 .001-.173 1.446 1.446 0 0 1-.356-.712c-.108-.599-.043-1.234.014-1.795.041-.466.088-.876.136-1.286.086-.75.176-1.526.191-2.287-.016-.065.002-.165.016-.247a.217.217 0 0 1 .008-.091v-.072l.111-.125a.413.413 0 0 1 .071-.099 19.947 19.947 0 0 1 2.657-11.393c-2.954-6.65-4.796-14.139-5.333-21.68a13.575 13.575 0 0 1-1.403-.846c-.998-.706-1.667-1.657-2.043-2.907-.775-2.509-.547-5.244-.329-7.889.045-.547.091-1.088.125-1.618l-.018-.022c-.247.152-.51.263-.794.337a1.67 1.67 0 0 1-.561.041.359.359 0 0 1-.079-.028.454.454 0 0 1-.255-.254l-.02-.103-.001.001c-.009 0-.03-.061-.024-.143a.442.442 0 0 1 .06-.247v-.023l.05-.056a.342.342 0 0 1 .134-.152c.745-.444 1.103-1.155 1.103-2.18 0-.614-.127-1.315-.377-2.082-.918-3.014-1.971-6.592-2.833-10.3-1.688-7.243-2.19-13.185-1.58-18.697a37.655 37.655 0 0 1 5.948-16.455c.031-.04.064-.073.094-.103l-.711-1.549a6.779 6.779 0 0 0-.202-.395c-.192-.36-.408-.767-.464-1.166a.84.84 0 0 1 .189-.669c.376-.432 1.172-.451 1.699-.462l.183-.005a13.91 13.91 0 0 1 2.194.118 4.227 4.227 0 0 0 .198-2.563l-.009-.057c-1.269-.753-2.335-2.063-3.091-3.803a7.839 7.839 0 0 1-.511-4.705 2.25 2.25 0 0 0-.407.461c-.026.044-.054.111-.082.178-.112.263-.267.67-.741.646-.384 0-.695-.317-.824-.852a3.546 3.546 0 0 1 .162-2.135 3.483 3.483 0 0 1 1.944-1.947c-.905-.763-1.473-1.673-1.615-2.6-.25-1.638.943-2.997 1.903-4.089.173-.198.464-.232.703-.084.23.14.324.402.232.639-.221.536-.267.948-.145 1.298.071.198.193.391.367.587 1.669-3.3 5.115-5.297 9.3-5.367l.232-.002c4.737 0 8.98 2.408 10.851 6.179l.028.12c.005.009.005.057.005.081a.599.599 0 0 1-.02.247c-.03.093-.093.148-.126.178a.304.304 0 0 1-.101.097l-.066.106-.105-.021a5.517 5.517 0 0 1-3.031.144c.497 1.516.634 2.872.745 4.966l.01.328.072.214c-.004.004-.009.032.003.089.459 1.056.93 2.165 1.403 3.275.441 1.039.883 2.078 1.327 3.114.062.091.083.255.04.414a.538.538 0 0 1-.27.338c-.324.145-.639.273-.964.402l-.156.059c-.075.028-.154.059-.232.085a.596.596 0 0 1-.088.04l-.02.013a.434.434 0 0 1-.106.041 1.444 1.444 0 0 1-.07.033 15.517 15.517 0 0 1-.956 4.996l-.05.084a.528.528 0 0 1-.31.327 13.043 13.043 0 0 1-3.552.749.276.276 0 0 0-.023.027l-.045.055-.048.057-.036.022-.143.15c-.029.056-.058.112-.087.173v.004l-.04.092-.025.067zm48.872-9.711l-1.711 11.264 2.526.213c.172-.941 1.094-4.625 4.847-4.625l.056.001a5.142 5.142 0 0 1 .044-1.355l.008-.039-2.362-.158.054-.825 2.518.167c.14-.414.323-.781.537-1.071.421-.574.929-.837 1.445-.761.71.118 1.198.912 1.279 2.049l2.478.164-.052.828-2.435-.163a5.206 5.206 0 0 1-.357 1.484 2.894 2.894 0 0 1 1.592 1.035c.717.935.871 2.32.457 4.121l3.367.285 1.623-11.982-15.914-.632zm6.572 5.818a.651.651 0 0 1 .12-.298l-.087-.006c-.011.038-.022.076-.027.117-.199 1.21.129 2.229.544 2.297.194.043.42-.13.645-.434.287-.39.501-.948.602-1.567.017-.099.028-.197.037-.293l-.371-.024.046.051a.574.574 0 0 1 .08.427c-.041.269-.208.451-.407.451h-.009l.242.054-.059.264a.486.486 0 0 1-.342.359.798.798 0 0 1-.744-.166.485.485 0 0 1-.156-.472l.054-.238-.086-.093a.587.587 0 0 1-.082-.429zm.762.116a.577.577 0 0 1-.206.384l-.083.061.573.13c-.167-.076-.256-.288-.219-.539a.575.575 0 0 1 .211-.388l-.328-.023c.055.1.073.234.052.375zm1.071-1.13c-.074-.715-.338-1.136-.58-1.174-.206.004-.44.155-.645.433-.117.16-.226.371-.329.637l1.554.104zm-2.497 2.877c-3.381-.173-4.119 2.918-4.274 3.864l8.454.713c.386-1.603.293-2.796-.277-3.545-.421-.55-1.022-.725-1.345-.781l-.033.051c-.423.577-.946.843-1.445.762-.476-.079-.853-.454-1.08-1.064zm-2.989-10.474c-.404.382-.87.677-1.374.874l3.713.15.093-.949-2.432-.075zm-5.925-3.691c.247-.687.786-1.152 1.425-1.152.878 0 1.567.879 1.567 2.003s-.689 2.003-1.567 2.003c-.27 0-.522-.083-.741-.231a3.08 3.08 0 0 0 4.116.544c.192-.134.373-.301.556-.513.5-.574.775-1.295.775-2.03a3.104 3.104 0 0 0-3.096-3.104 3.106 3.106 0 0 0-3.035 2.48zm1.424 1.738c.206 0 .455-.395.455-.887s-.248-.887-.455-.887c-.207 0-.455.395-.455.887 0 .491.249.887.455.887zm-3.441 2.56l3.249.132a4.282 4.282 0 0 1-1.251-.923l-1.839-.056-.159.847zm-9.966 12.329l.305.025c.234-1.141 1.22-4.445 4.795-4.445l.095.002a4.631 4.631 0 0 1 .023-1.346c.122-.747.389-1.431.752-1.923.421-.574.934-.838 1.444-.761.509.084.908.505 1.125 1.184.186.588.222 1.321.099 2.065a5.165 5.165 0 0 1-.311 1.111 2.884 2.884 0 0 1 1.592 1.036c.685.892.849 2.214.489 3.932l2.045.172 1.704-11.227-12.422-.492-1.735 10.667zm5.358-3.582a3.948 3.948 0 0 0-.262-.01c-2.915 0-3.751 2.659-3.967 3.688l8.452.712c.335-1.513.23-2.641-.314-3.354-.423-.554-1.024-.728-1.345-.782-.012.017-.023.032-.033.049-.426.579-.948.845-1.446.764-.48-.079-.861-.456-1.085-1.067zm.745-.369c.115.362.289.588.472.617.175.038.426-.134.645-.433.287-.389.501-.946.603-1.567.102-.618.077-1.214-.07-1.68-.115-.362-.289-.587-.472-.616h-.009c-.219 0-.434.158-.637.433-.287.388-.501.944-.603 1.567-.101.618-.076 1.215.071 1.679zm.294 12.958a1.972 1.972 0 0 0-.78-.749c-.415.558-.935.825-1.431.744-.47-.077-.844-.439-1.07-1.025-1.943.212-2.756 2.476-3.031 3.53l6.586 1.01c.295-1.528.202-2.737-.274-3.51zm-1.445-3.243a.576.576 0 0 1 .207-.384l.092-.066.27.019.087.094a2.962 2.962 0 0 0-.111-.924c-.114-.355-.292-.588-.473-.617h-.003c-.458 0-1.052.823-1.245 2.003-.101.621-.075 1.218.071 1.678.114.357.291.588.472.617.15.033.344-.08.532-.293-.149-.048-.311-.132-.401-.279a.466.466 0 0 1-.027-.428l.083-.206.219.043c.182.036.376.112.516.229.043-.1.086-.211.127-.332.016-.045.028-.097.041-.148l.095-.349.264.042-.12-.375a.484.484 0 0 1-.143.176l-.091.066-.163-.003a.346.346 0 0 1-.219-.137.584.584 0 0 1-.08-.426zm5.667 7.357l1.708-11.251-12.46-1.05-1.691 10.393 1.091.166c.297-1.178 1.245-3.898 3.68-4.214a4.674 4.674 0 0 1 .015-1.412c.283-1.71 1.222-2.843 2.196-2.686.512.085.911.507 1.127 1.185.123.388.169.863.138 1.45l.002.005.522 1.815-.855-.156c-.023.057-.045.112-.07.169.317.167.735.476 1.074 1.026.595.962.727 2.333.393 4.079l3.13.481zm4.093.627c.166-.805.999-4.085 3.601-4.554a5.12 5.12 0 0 1-.199-.982c-.112-1.094.1-2.094.569-2.673.237-.292.53-.462.849-.495 1.011-.096 1.859 1.118 2.031 2.813a4.815 4.815 0 0 1-.099 1.633c.315.153.786.467 1.161 1.072.644 1.044.754 2.54.33 4.449l4.527.695 1.683-12.414-16.011-1.352-1.716 11.307 3.274.501zm5.072-5.281l.98-.159-.004-.139-.091.036a.325.325 0 0 1-.255-.044.479.479 0 0 1-.037-.025.345.345 0 0 1-.244.221h-.001c-.209.055-.423-.12-.491-.409-.067-.291.043-.535.259-.587l.11-.026.15.071.034.024a.672.672 0 0 1 .032-.066l.059-.096.154-.061a.315.315 0 0 1 .167.004c-.223-.803-.635-1.345-.961-1.345-.445.043-.834 1.04-.709 2.261.065.624.245 1.193.508 1.6.204.317.433.492.611.473l.006-.001c.193-.019.387-.254.523-.629.052-.144.092-.3.122-.47a.75.75 0 0 1-.166.044c-.36.055-.664-.113-.712-.413l-.044-.264zm2.354 6.42c.384-1.69.312-3.028-.21-3.881a2.009 2.009 0 0 0-.76-.739c-.259.451-.615.716-1.023.758a1.33 1.33 0 0 1-.113.006c-.472 0-.926-.303-1.28-.854a2.376 2.376 0 0 1-.114-.198c-2.203.25-2.949 3.142-3.107 3.893l6.607 1.015zm-1.118 3.945v19.863c.08.071.17.133.276.186l.293.088a.838.838 0 0 0 .22.044c.292 0 .569-.112.789-.317v-20.52l-1.775-1.778-2.634-.404 2.831 2.838zM93.159 78.308c.363.219 1.177.473 2.407.473s2.044-.254 2.408-.473c-.364-.221-1.178-.475-2.408-.475-1.229 0-2.044.253-2.407.475zm-23.221 1.305c-1.582-1.554-3.807-.635-5.769.348a16.095 16.095 0 0 0-2.902 1.893l-.246.198c-.732.585-1.955 1.562-1.797 2.412l.005.032c1.885 2.808 5.121 4.812 9.126 5.65 4.527.951 9.231.23 13.779-.467l.131-.021c.376-.058.621.206.666.494a.546.546 0 0 1-.017.247 4.114 4.114 0 0 0 2.747-.487.396.396 0 0 1 .189-.158.47.47 0 0 1 .059-.033c.032-.017.068-.035.099-.056.33-.246.585-.491.77-.742a.497.497 0 0 1 .168-.154c.045-.145.018-.264-.086-.385-.14-.177-.361-.292-.596-.412-.208-.107-.423-.217-.607-.379a3.953 3.953 0 0 1-.472-.518c-.159-.197-.31-.382-.49-.519-.609-.447-1.476-.431-2.247-.35-.488.039-.96.121-1.44.219 1.013.672 2.011 1.361 2.876 1.963a.554.554 0 0 1 .248.499.589.589 0 0 1-.315.484.51.51 0 0 1-.524-.042c-4.403-3.051-9.389-6.506-15.076-7.772a.522.522 0 0 1-.356-.267.57.57 0 0 1-.044-.385.554.554 0 0 1 .666-.44c.607.139 1.245.314 1.94.533a8.942 8.942 0 0 0-.472-1.376l-.013-.009zm16.574 11.048c-1.578 1.099-3.725 1.217-5.351.286-1.496.229-3.081.454-4.702.601l7.557 3.715 9.693-2.334-6.335-2.88a4.157 4.157 0 0 1-.862.612zM53.075 41.032c1.832.655 3.293.815 4.577.488a3.873 3.873 0 0 0 1.76-.988 2.668 2.668 0 0 1-.953-.131c-.7-.224-1.239-.721-1.555-1.434-.391-.884-.381-1.993.028-2.897.419-.908 1.192-1.571 2.069-1.776.2-.051.416-.077.636-.077.673 0 1.313.25 1.777.69l.008-.003a.79.79 0 0 0 .111-.068l.088-.081a.405.405 0 0 1 .034-.044c.005-.01.016-.023.025-.038l.012-.035c-.316-.454-.791-.762-1.293-1.086-.57-.382-1.072-.74-1.536-1.097-.798-.622-1.652-1.419-1.936-2.604-.345-1.423.631-2.218 1.631-2.809 1.94-1.132 4.339-1.603 7.308-1.454l.133.038a.273.273 0 0 1 .136.05 4.488 4.488 0 0 0 2.898.393c-1.961-3.223-6.063-5.193-10.338-4.944-3.791.226-6.699 2.161-7.977 5.308a.598.598 0 0 1-.251.292l-.055.05-.079.006a.532.532 0 0 1-.283.016h-.077l-.05-.05a.428.428 0 0 1-.128-.086c-.625-.479-1.018-.981-1.213-1.556l-.016-.05c-.355.543-.628 1.173-.51 1.815.159.948.975 1.895 2.182 2.541l.12.122.02.024.054.072c.033.066.074.144.074.261l-.014.102c-.018.077-.033.143-.079.203a.478.478 0 0 1-.159.156l-.018.018-.275.093a2.35 2.35 0 0 0-2.031.991 2.555 2.555 0 0 0-.435 1.123 2.208 2.208 0 0 0-.014.202c.449-.534 1.068-.946 1.797-1.194a.528.528 0 0 1 .54.145c.173.122.238.355.136.581a6.731 6.731 0 0 0 .114 5.284l.001.001c.752 1.691 1.763 2.848 3.006 3.437zm-4.278 47.657a.495.495 0 0 1 .446-.569.618.618 0 0 1 .413.097c.141.093.231.24.251.411.069.674.121 1.405.159 2.3.219.51.458 1.012.696 1.513.492 1.036 1.002 2.106 1.33 3.242.441 1.547.461 3.039.06 4.436a.526.526 0 0 1-.103.324c-.038.112-.08.229-.124.345 3.078 1.134 6.707 1.387 10.795.751 4.07-.633 7.603-1.945 10.5-3.898.135-.998.159-2.006.074-2.997l-.022-.174a13.392 13.392 0 0 0-.572-2.773c-1.774-.011-3.353-.179-4.828-.513-4.238-.929-7.677-3.144-9.681-6.234a.487.487 0 0 1-.074-.427 135.754 135.754 0 0 1-4.652-18.001.574.574 0 0 1 .466-.673c.302-.056.559.115.615.412a135.999 135.999 0 0 0 4.174 16.483c.38-.493.878-.922 1.3-1.282l.13-.112a17.587 17.587 0 0 1 3.488-2.363c1.916-.971 4.095-1.817 5.963-.94a136.232 136.232 0 0 0-4.897-21.7.531.531 0 0 1-.191-.171 17.21 17.21 0 0 0-6.124-5.036.516.516 0 0 1-.242-.706.573.573 0 0 1 .765-.276c1.871.917 3.583 2.18 5.1 3.76.041-1.436-.458-2.873-1.387-3.938-1.088-1.224-2.839-1.912-4.385-2.519-.268-.106-.531-.209-.787-.313-1.647-.675-3.822-1.479-6.05-1.697a11.086 11.086 0 0 0-1.392-.056 9.44 9.44 0 0 0-.764.032l-.178.012a1.844 1.844 0 0 0-.202.017c.005.015.01.045.02.09.069.293.242.617.409.93.086.161.17.32.24.471l.032.072c.188.414.374.828.567 1.24.02.002.041.004.061.008.387.033.795.067 1.205.099l1.129.094a.572.572 0 0 1 .533.558.57.57 0 0 1-.186.415.526.526 0 0 1-.391.143c-.249-.023-.499-.043-.747-.064-.251-.021-.502-.04-.75-.064a9.493 9.493 0 0 0-.367-.028c-.125-.01-.251-.018-.379-.029l-.221-.022a.567.567 0 0 1-.331.158 35.986 35.986 0 0 0-4.029 8.423c-3.862 11.86-.697 24.294 2.875 36.013l.012.051c.107.358.225.804.296 1.292.048-.413.068-.797.084-1.096a33.924 33.924 0 0 0-.132-5.521zm2.127 7.014c-.227-.728-.52-1.411-.841-2.104a32.569 32.569 0 0 1-.117 1.791c-.096.844-.344 1.99-.985 2.839a4.067 4.067 0 0 0 2.203 1.228c.257-1.174.17-2.436-.26-3.754zm4.57 55.845l.131.067a9.157 9.157 0 0 0 5.686.801.515.515 0 0 1 .219-.112c.103-.024.209-.045.316-.068l.027-.005a24.17 24.17 0 0 1-.361-3.468c-1.199.092-2.51-.1-3.905-.57a13.269 13.269 0 0 1-2.257-.981c-.032.338-.073.676-.113 1.013-.036.296-.07.593-.101.89a13.12 13.12 0 0 0-.092 1.638c-.001.254-.001.444.093.564.07.088.216.16.357.231zm6.79 2.539c-.074-.268-.139-.52-.196-.761-.079.017-.157.031-.235.046a.44.44 0 0 1-.249.117 10.32 10.32 0 0 1-6.074-.703l.102.691c.219 1.469.445 2.988.617 4.484.202 1.823.185 3.774-.045 5.969l-.068.563h.027c1.383 0 3.011.633 3.699 1.944.298.567.517 1.24.67 2.057.087.46.128.923.125 1.408.435-.016.903-.051 1.419-.106a.42.42 0 0 1 .05-.003 233.66 233.66 0 0 1-.016-5.704.72.72 0 0 1-.096-.17c.003.016-.044-.028-.068-.125-.486-2.897-.295-5.83-.112-8.668l.034-.526c-.013-.056.005-.218.172-.382l.05-.049.119-.044c.021-.011.043-.025.075-.038zm-5.023-38.836c.001-.031-.003-.062-.002-.092l.048-.748c-1.678-.715-3.233-1.791-4.089-3.45-.956-1.85-.789-4.016-.27-5.967.077-.287-.143-.474-.372-.495.016-.063.026-.122.043-.185-.017.063-.028.122-.045.184-.172-.015-.348.063-.405.28-.578 2.172-.707 4.542.351 6.592l1.385 1.909-.023-.009c-.217-.11-.434-.215-.652-.322l-.232-.112c.605 7.53 2.506 14.92 5.512 21.405.155.322-.022.646-.281.773a.525.525 0 0 1-.403.031 18.772 18.772 0 0 0-2.165 10.987.506.506 0 0 1 .003.11c.241.159.562.299.772.39l.176.079a12.25 12.25 0 0 0 1.739.653c1.15.345 2.205.475 3.128.398a23.763 23.763 0 0 1 1.228-7.213l-2.808-11.815c-.284-1.203-.57-2.403-.858-3.602-.282-1.18-.564-2.36-.843-3.541l-.111-.457c-.452-1.872-.898-3.765-.825-5.737l-.001-.046zm5.741 48.094c1.39.497 5.399 1.623 8.162-.647.108-1.67.098-3.372.087-5.02-.002-.505-.005-1.009-.005-1.514-.427.201-.893.311-1.344.399-.969.187-1.9.27-2.782.247-1.631-.024-3.045-.411-4.21-1.15-.158 2.535-.306 5.146.092 7.685zm8.111 7.673l-.084-.092a.547.547 0 0 1-.115-.212l-.029-.035-.016-.13a34.03 34.03 0 0 1 .173-6.45c-2.807 1.682-6.161.999-7.819.485-.02 2.589-.003 5.104.048 7.48l.024.707c.14-.011.28-.017.419-.017 1.453 0 2.861.608 3.799 1.671 1.026 1.174 1.449 2.816 1.142 4.363a60.31 60.31 0 0 0 7.503-.821c1.606-.28 3.213-.676 4.768-1.06l.121-.03c.167-.096.371-.313.4-.428-.015-.003-.113-.152-.161-.223l-.071-.109a15.68 15.68 0 0 0-.475-.752c-.558-.819-1.161-1.407-1.789-1.744-.657-.257-1.367-.538-2.073-.778-1.081-.361-2.059-.677-3.079-.878l-.112-.022c-.889-.168-1.807-.345-2.574-.925zm2.79-56.988a.405.405 0 0 1-.074-.075c-.81-.838-2.251-.886-3.522-.927l-.435-.016a33.475 33.475 0 0 0-4.033.113c-2.045.18-5.042.581-7.419 1.969l-.058.035-.008.276c-.043 1.861.413 3.718.852 5.515l.173.712c.276 1.17.555 2.337.832 3.503.279 1.167.558 2.333.833 3.503.557 2.332 1.111 4.665 1.666 6.999.555 2.334 1.108 4.664 1.666 6.998a.555.555 0 0 1-.422.671.538.538 0 0 1-.664-.39 24.888 24.888 0 0 0-.052-.232c-.949 3.919-.856 7.974.283 11.793.026.084.03.17.015.25.964.602 2.12.928 3.436.973.795.023 1.596-.035 2.381-.169l.101-.018c.335-.058.704-.121 1.043-.238a.522.522 0 0 1 .022-.177 77.388 77.388 0 0 0 2.028-8.942c1.779-10.665 1.57-21.573 1.356-32.126zm6.453 28.451l-.76-21.316-.946.293-.865-24.331-3.358-1.706c.023.818-.015 1.613-.113 2.373a.358.358 0 0 1 .046.176c.305 4.329.655 10.051.655 15.748.061 2.766.126 6.034.138 9.262.044 8.3-.327 14.978-1.165 20.97l6.368-1.469zm71.567-43.898l-28.83-9.293c-.921.683-2.813.787-4.792.25-2.327-.63-4.04-1.943-4.14-3.129l-14.916-4.808v3.043c0 1.164-1.982 1.576-3.679 1.576s-3.679-.413-3.679-1.576v-3.195l-13.836 3.108c.578.342 1.116.674 1.633 1.004.185-.036.371-.073.556-.111.805-.164 1.639-.334 2.477-.38 1.321-.078 2.29.199 2.941.85.117.124.218.249.319.374.095.117.19.234.294.345.178.178.391.294.639.428l.158.086c.348.202.821.535.959 1.132.067.271.057.546-.026.817l6.517 2.964a.974.974 0 0 1 .572.989.976.976 0 0 1-.749.867l-10.11 2.434a1.02 1.02 0 0 1-.661-.072l-9.371-4.607-.216.01-.129.006c.179.616.319 1.284.423 2.027l30.804 15.382 46.842-10.521zM65.998 31.211a.582.582 0 0 0-.779-.183 5.274 5.274 0 0 0-1.906 2.341.502.502 0 0 0 .03.419.57.57 0 0 0 .505.316c.212 0 .409-.133.529-.377.122-.308.346-.689.563-.962.157-.185.291-.322.427-.439.153-.143.281-.238.445-.351a.562.562 0 0 0 .191-.754l-.005-.01zm38.397 11.618l.112.016a.26.26 0 0 0 .048.004c.199 0 .366-.18.409-.452.044-.291-.083-.528-.302-.564h-.003c-.213-.037-.412.155-.458.448a.58.58 0 0 0 .082.427l.112.121zm13.284 49.911l-.074-.026-13.994 3.388 9.071 4.257 17.591-3.218-12.594-4.401zm-14.005-50.045h.005a.267.267 0 0 0 .05.004c.199 0 .366-.182.407-.451a.582.582 0 0 0-.08-.428l-.113-.121-.111-.017c-.222-.039-.412.156-.458.447-.045.297.079.528.3.566zm.373 1.245c.276 0 .495-.147.55-.388l.059-.265-1.241-.28-.06.263a.488.488 0 0 0 .147.464.776.776 0 0 0 .359.186c.063.014.127.02.186.02z" data-color="1" class="icon1"></path></g></g>
</svg>
</g><g opacity="1" transform="rotate(0 409.4701 728.5737)">
<svg width="386.4083" height="90" x="409.4701" y="728.5737" version="1.1" preserveAspectRatio="none" viewBox="-0.3906 -26.8359 117.4804 27.3632">
  <g transform="matrix(1 0 0 1 0 0)" class="companyName"><path id="id-D6z1nYkh6" d="M-0.39-24.65L-0.39-26.84L6.45-26.84L6.45-6.07Q6.45-4.90 6.64-4.17Q6.84-3.44 7.26-3.04Q7.68-2.64 8.35-2.50Q9.02-2.36 9.96-2.36L9.96-2.36L11.88-2.36L11.88 0L10 0Q8.44 0 7.30-0.28Q6.17-0.57 5.44-1.27Q4.71-1.97 4.36-3.15Q4.00-4.34 4.00-6.15L4.00-6.15L4.00-24.65L-0.39-24.65Z M32.09 0L32.09-2.17Q31.19-1.72 30.10-1.24Q29.00-0.76 27.73-0.37Q26.46 0.02 25.04 0.27Q23.61 0.53 22.05 0.53L22.05 0.53Q20.29 0.53 18.87 0.18Q17.44-0.18 16.45-0.87Q15.45-1.56 14.90-2.59Q14.36-3.61 14.36-4.96L14.36-4.96Q14.36-7.05 15.70-8.38Q17.05-9.71 19.42-10.50Q21.80-11.29 25.04-11.66Q28.28-12.03 32.09-12.21L32.09-12.21L32.09-13.13Q32.09-14.16 31.52-14.90Q30.96-15.64 30-16.11Q29.04-16.58 27.78-16.81Q26.52-17.03 25.12-17.03L25.12-17.03Q23.48-17.03 22.26-16.83Q21.04-16.62 20.20-16.22Q19.36-15.82 18.86-15.24Q18.36-14.67 18.13-13.93L18.13-13.93L15.64-14.51Q16.27-16.70 18.62-17.91Q20.98-19.12 25.04-19.12L25.04-19.12Q27.09-19.12 28.83-18.77Q30.57-18.42 31.83-17.66Q33.09-16.89 33.80-15.67Q34.51-14.45 34.51-12.71L34.51-12.71L34.51-2.21L39.16-2.21L39.16 0L32.09 0ZM32.09-4.51L32.09-10.16Q27.81-10 24.88-9.60Q21.95-9.20 20.15-8.56Q18.34-7.93 17.55-7.06Q16.76-6.19 16.76-5.08L16.76-5.08Q16.76-3.36 18.25-2.46Q19.75-1.56 22.64-1.56L22.64-1.56Q23.87-1.56 25.26-1.84Q26.66-2.11 27.97-2.53Q29.28-2.95 30.37-3.48Q31.46-4.00 32.09-4.51L32.09-4.51Z M39.18-24.65L39.18-26.84L46.02-26.84L46.02-6.07Q46.02-4.90 46.21-4.17Q46.41-3.44 46.83-3.04Q47.25-2.64 47.92-2.50Q48.59-2.36 49.53-2.36L49.53-2.36L51.45-2.36L51.45 0L49.57 0Q48.01 0 46.88-0.28Q45.74-0.57 45.01-1.27Q44.28-1.97 43.93-3.15Q43.57-4.34 43.57-6.15L43.57-6.15L43.57-24.65L39.18-24.65Z M52.93-16.41L52.93-18.59L59.77-18.59L59.77-2.21L64.18-2.21L64.18 0L52.93 0L52.93-2.21L57.32-2.21L57.32-16.41L52.93-16.41ZM56.09-23.81L56.09-23.81Q56.09-24.26 56.26-24.66Q56.43-25.06 56.72-25.35Q57.01-25.64 57.40-25.82Q57.79-26.00 58.24-26.00L58.24-26.00Q58.69-26.00 59.09-25.82Q59.49-25.64 59.79-25.35Q60.10-25.06 60.27-24.66Q60.45-24.26 60.45-23.81L60.45-23.81Q60.45-23.36 60.27-22.96Q60.10-22.56 59.79-22.27Q59.49-21.97 59.09-21.81Q58.69-21.64 58.24-21.64L58.24-21.64Q57.79-21.64 57.40-21.81Q57.01-21.97 56.72-22.27Q56.43-22.56 56.26-22.96Q56.09-23.36 56.09-23.81Z M64.80-16.41L64.80-18.59L69.84-18.59L69.84-25.04L72.29-25.04L72.29-18.59L85.37-18.59L85.37-16.41L72.29-16.41L72.29-5.57Q72.29-4.41 72.71-3.65Q73.13-2.89 73.89-2.44Q74.65-1.99 75.71-1.82Q76.78-1.64 78.05-1.64L78.05-1.64Q79.32-1.64 80.37-1.80Q81.43-1.95 82.29-2.20Q83.14-2.44 83.86-2.76Q84.57-3.09 85.16-3.44L85.16-3.44L86.37-1.48Q85.64-1.07 84.74-0.71Q83.83-0.35 82.77-0.09Q81.72 0.18 80.53 0.33Q79.34 0.49 78.09 0.49L78.09 0.49Q76.21 0.49 74.69 0.18Q73.16-0.14 72.09-0.84Q71.02-1.54 70.43-2.69Q69.84-3.83 69.84-5.49L69.84-5.49L69.84-16.41L64.80-16.41Z M88.40-24.65L88.40-26.84L95.23-26.84L95.23-15.08Q96.15-15.96 97.29-16.71Q98.42-17.46 99.73-18.03Q101.04-18.59 102.48-18.92Q103.93-19.24 105.45-19.24L105.45-19.24Q107.27-19.24 108.62-18.78Q109.98-18.32 110.88-17.48Q111.78-16.64 112.23-15.44Q112.68-14.24 112.68-12.75L112.68-12.75L112.68-2.21L117.09-2.21L117.09 0L105.84 0L105.84-2.21L110.23-2.21L110.23-12.03Q110.23-13.52 109.85-14.48Q109.47-15.45 108.77-16.02Q108.07-16.58 107.06-16.81Q106.05-17.03 104.80-17.03L104.80-17.03Q103.34-17.03 101.93-16.64Q100.53-16.25 99.29-15.66Q98.05-15.08 97.00-14.37Q95.96-13.65 95.23-13.01L95.23-13.01L95.23-2.21L99.65-2.21L99.65 0L88.40 0L88.40-2.21L92.79-2.21L92.79-24.65L88.40-24.65Z"/></g>
</svg>
</g></svg></svg>